<svg width="24" height="24" viewBox="0 0 24 24" fill="none" xmlns="http://www.w3.org/2000/svg">
<g clip-path="url(#clip0_225_387)">
<path opacity="0.998" fill-rule="evenodd" clip-rule="evenodd" d="M3.70961 1.99138C4.05729 1.94687 4.35354 2.04708 4.59838 2.29197C5.64295 3.88349 6.68176 5.47896 7.71483 7.07838C7.81724 7.47695 7.77878 7.86233 7.59941 8.23452C7.03388 9.19809 6.44521 10.1461 5.83342 11.0786C6.09001 11.7546 6.42474 12.3866 6.83761 12.9747C7.93352 14.5194 9.2455 15.849 10.7736 16.9634C11.4331 17.4383 12.1449 17.8198 12.9089 18.1079C13.7608 17.5554 14.6187 17.012 15.4829 16.4778C15.7426 16.3243 16.0196 16.2164 16.3139 16.1541C16.4601 16.1386 16.6064 16.1386 16.7526 16.1541C16.8245 16.1785 16.8938 16.2094 16.9603 16.2466C18.5517 17.278 20.1369 18.3185 21.7158 19.3681C21.8797 19.5557 21.9642 19.7753 21.9697 20.0271C21.9531 20.3091 21.8723 20.5712 21.7273 20.8133C21.0761 21.7047 20.349 22.5334 19.5458 23.299C19.2691 23.5531 18.9613 23.7612 18.6224 23.9233C18.4692 23.9483 18.3153 23.9675 18.1607 23.9811C17.0528 23.9527 15.9832 23.733 14.9519 23.3221C13.4012 22.6885 11.9623 21.8714 10.6351 20.8711C7.60255 18.5813 4.96702 15.9029 2.72851 12.8359C1.91324 11.6811 1.22838 10.4479 0.673954 9.13631C0.229525 8.05888 -0.00518101 6.93743 -0.0301334 5.77195C-0.0335107 5.54317 0.0242083 5.33123 0.143003 5.13607C0.378261 4.7847 0.639881 4.45328 0.927888 4.14179C1.65774 3.37164 2.46185 2.69725 3.34025 2.11855C3.46367 2.06838 3.58678 2.02599 3.70961 1.99138Z" fill="black"/>
<path opacity="0.999" fill-rule="evenodd" clip-rule="evenodd" d="M15.3333 0.98999C15.3777 1.56069 15.3925 2.13964 15.3779 2.72683C16.8657 2.7159 18.353 2.72748 19.8398 2.76157C21.2101 3.06468 22.1062 3.90995 22.5281 5.29736C22.5693 5.46504 22.599 5.63486 22.6173 5.80683C22.6285 7.86786 22.6323 9.92891 22.6285 11.99C21.8848 11.99 21.1412 11.99 20.3975 11.99C20.4012 10.0602 20.3975 8.13033 20.3864 6.20052C20.3469 5.61147 20.0532 5.23708 19.5051 5.07736C18.1298 5.0435 16.7541 5.03192 15.3779 5.04262C15.3853 5.62178 15.3779 6.20072 15.3556 6.77946C14.1088 5.81992 12.8669 4.855 11.6299 3.88473C12.865 2.9196 14.0995 1.9547 15.3333 0.98999Z" fill="black"/>
</g>
<defs>
<clipPath id="clip0_225_387">
<rect width="24" height="24" fill="white"/>
</clipPath>
</defs>
</svg>
