<svg width="40" height="40" viewBox="0 0 40 40" fill="none" xmlns="http://www.w3.org/2000/svg">
<path d="M33.5244 15.9999C32.8858 15.9992 32.2619 16.191 31.734 16.5503C31.5753 16.0872 31.3119 15.6669 30.9643 15.3222C30.6167 14.9775 30.1943 14.7177 29.7298 14.5628C29.2654 14.408 28.7715 14.3625 28.2866 14.4297C27.8017 14.4969 27.3389 14.675 26.934 14.9503C26.7836 14.5036 26.5352 14.0963 26.2069 13.7582C25.8786 13.42 25.4788 13.1596 25.0368 12.9961C24.5948 12.8325 24.1218 12.77 23.6525 12.813C23.1831 12.856 22.7294 13.0035 22.3245 13.2447V3.19998C22.3245 2.35129 21.9873 1.53736 21.3872 0.937252C20.7871 0.337139 19.9732 0 19.1245 0C18.2758 0 17.4619 0.337139 16.8618 0.937252C16.2617 1.53736 15.9245 2.35129 15.9245 3.19998V25.5566C15.9261 25.5988 15.9142 25.6405 15.8906 25.6755C15.8671 25.7106 15.833 25.7373 15.7933 25.7518C15.7551 25.7702 15.7119 25.7756 15.6704 25.7672C15.6288 25.7588 15.5911 25.7371 15.5629 25.7054L13.0125 23.1566C12.2723 22.4104 11.3375 21.8868 10.3145 21.6452C9.2915 21.4037 8.22125 21.4539 7.22538 21.7903C6.87903 21.9052 6.5639 22.0985 6.3045 22.3552C6.04511 22.6119 5.84845 22.925 5.72986 23.2701C5.61126 23.6152 5.57391 23.983 5.62073 24.3449C5.66755 24.7068 5.79727 25.0531 5.99979 25.3566L11.2589 33.243C12.0761 34.4772 12.9973 35.6393 14.0125 36.7165C15.0274 37.7647 16.2443 38.596 17.5896 39.1603C18.935 39.7246 20.3808 40.0102 21.8397 39.9997H25.8396C28.0352 40.0068 30.1819 39.3522 31.9999 38.1213C33.8179 36.8903 35.2229 35.1402 36.0316 33.099C36.4941 31.9468 36.731 30.7165 36.7292 29.475V19.1999C36.7292 18.7792 36.6462 18.3627 36.4851 17.9742C36.324 17.5856 36.0879 17.2327 35.7902 16.9354C35.4926 16.6382 35.1392 16.4026 34.7504 16.2421C34.3617 16.0816 33.945 15.9993 33.5244 15.9999ZM35.1244 29.475C35.1251 30.5125 34.9274 31.5405 34.542 32.5038C33.8512 34.2477 32.651 35.7431 31.0978 36.7948C29.5447 37.8465 27.7106 38.4058 25.8348 38.3997H21.8349C20.5933 38.4103 19.3624 38.1692 18.2165 37.691C17.0706 37.2128 16.0335 36.5074 15.1677 35.6174C14.2161 34.6056 13.3522 33.5147 12.5853 32.3566L7.33098 24.4702C7.2651 24.3709 7.22304 24.2578 7.20805 24.1395C7.19306 24.0213 7.20556 23.9012 7.24458 23.7886C7.28235 23.6771 7.34529 23.5758 7.42853 23.4926C7.51178 23.4094 7.61308 23.3464 7.72457 23.3086C8.44011 23.066 9.20939 23.0292 9.94483 23.2023C10.6803 23.3754 11.3524 23.7515 11.8845 24.2878L14.4349 26.8366C14.6881 27.0902 15.0109 27.2629 15.3623 27.333C15.7137 27.4031 16.078 27.3674 16.4091 27.2303C16.7402 27.0933 17.0233 26.8611 17.2224 26.5632C17.4215 26.2653 17.5277 25.915 17.5277 25.5566V3.19998C17.5277 2.77563 17.6963 2.36867 17.9963 2.06861C18.2964 1.76856 18.7034 1.59999 19.1277 1.59999C19.552 1.59999 19.959 1.76856 20.2591 2.06861C20.5591 2.36867 20.7277 2.77563 20.7277 3.19998V17.5999C20.7277 17.812 20.812 18.0155 20.962 18.1656C21.112 18.3156 21.3155 18.3999 21.5277 18.3999C21.7399 18.3999 21.9433 18.3156 22.0934 18.1656C22.2434 18.0155 22.3277 17.812 22.3277 17.5999V15.9999C22.3277 15.5755 22.4962 15.1686 22.7963 14.8685C23.0964 14.5685 23.5033 14.3999 23.9277 14.3999C24.352 14.3999 24.759 14.5685 25.059 14.8685C25.3591 15.1686 25.5277 15.5755 25.5277 15.9999V18.3999C25.5277 18.612 25.6119 18.8155 25.762 18.9656C25.912 19.1156 26.1155 19.1999 26.3276 19.1999C26.5398 19.1999 26.7433 19.1156 26.8933 18.9656C27.0434 18.8155 27.1276 18.612 27.1276 18.3999V17.5999C27.1276 17.1755 27.2962 16.7686 27.5963 16.4685C27.8963 16.1685 28.3033 15.9999 28.7276 15.9999C29.152 15.9999 29.5589 16.1685 29.859 16.4685C30.159 16.7686 30.3276 17.1755 30.3276 17.5999V19.9999C30.3276 20.212 30.4119 20.4155 30.5619 20.5655C30.712 20.7156 30.9154 20.7999 31.1276 20.7999C31.3398 20.7999 31.5433 20.7156 31.6933 20.5655C31.8433 20.4155 31.9276 20.212 31.9276 19.9999V19.1999C31.9276 18.7755 32.0962 18.3686 32.3962 18.0685C32.6963 17.7684 33.1033 17.5999 33.5276 17.5999C33.9519 17.5999 34.3589 17.7684 34.659 18.0685C34.959 18.3686 35.1276 18.7755 35.1276 19.1999L35.1244 29.475Z" fill="#FFE600"/>
<path d="M25.6013 6.39961H31.67L29.8348 8.2332C29.6846 8.38341 29.6002 8.58715 29.6002 8.79959C29.6002 9.01203 29.6846 9.21577 29.8348 9.36599C29.9851 9.51621 30.1888 9.6006 30.4012 9.6006C30.6137 9.6006 30.8174 9.51621 30.9676 9.36599L34.1676 6.16601C34.2421 6.0917 34.3012 6.00342 34.3415 5.90623C34.3819 5.80904 34.4026 5.70484 34.4026 5.59962C34.4026 5.49439 34.3819 5.3902 34.3415 5.293C34.3012 5.19581 34.2421 5.10753 34.1676 5.03322L30.9676 1.83324C30.8174 1.68302 30.6137 1.59863 30.4012 1.59863C30.1888 1.59863 29.9851 1.68302 29.8348 1.83324C29.6846 1.98346 29.6002 2.1872 29.6002 2.39964C29.6002 2.61208 29.6846 2.81582 29.8348 2.96603L31.67 4.79962H25.6013C25.3891 4.79962 25.1856 4.88391 25.0356 5.03393C24.8856 5.18396 24.8013 5.38744 24.8013 5.59962C24.8013 5.81179 24.8856 6.01527 25.0356 6.1653C25.1856 6.31533 25.3891 6.39961 25.6013 6.39961Z" fill="#FFE600"/>
<path d="M8.0014 9.59959C8.15983 9.59987 8.31478 9.55311 8.4466 9.46522C8.57843 9.37734 8.68118 9.25229 8.74185 9.10593C8.80252 8.95958 8.81836 8.7985 8.78738 8.64313C8.75639 8.48776 8.67997 8.34508 8.5678 8.2332L6.73261 6.39961H12.8014C13.0135 6.39961 13.217 6.31533 13.3671 6.1653C13.5171 6.01527 13.6014 5.81179 13.6014 5.59962C13.6014 5.38744 13.5171 5.18396 13.3671 5.03393C13.217 4.88391 13.0135 4.79962 12.8014 4.79962H6.73261L8.5678 2.96603C8.71802 2.81582 8.80241 2.61208 8.80241 2.39964C8.80241 2.1872 8.71802 1.98346 8.5678 1.83324C8.41758 1.68302 8.21384 1.59863 8.0014 1.59863C7.78896 1.59863 7.58522 1.68302 7.43501 1.83324L4.23503 5.03322C4.16053 5.10753 4.10142 5.19581 4.06109 5.293C4.02076 5.3902 4 5.49439 4 5.59962C4 5.70484 4.02076 5.80904 4.06109 5.90623C4.10142 6.00342 4.16053 6.0917 4.23503 6.16601L7.43501 9.36599C7.50944 9.44023 7.59777 9.49908 7.69496 9.53916C7.79214 9.57924 7.89628 9.59978 8.0014 9.59959Z" fill="#FFE600"/>
</svg>
