<svg width="240" height="70" viewBox="0 0 240 70" fill="none" xmlns="http://www.w3.org/2000/svg">
<g clip-path="url(#clip0_23_147)">
<path d="M91.408 50.032V60H89.224V55.702H85.15V60H82.966V50.032H85.15V53.784H89.224V50.032H91.408ZM99.853 60H97.837C97.7716 59.8133 97.725 59.58 97.697 59.3C97.0903 59.9067 96.311 60.21 95.359 60.21C94.5563 60.21 93.9263 60.0187 93.469 59.636C93.0116 59.244 92.783 58.7073 92.783 58.026C92.783 57.718 92.8203 57.4473 92.895 57.214C92.979 56.9807 93.1096 56.7847 93.287 56.626C93.4736 56.4673 93.6463 56.3367 93.805 56.234C93.973 56.1313 94.2016 56.0473 94.491 55.982C94.7803 55.9167 95.0136 55.87 95.191 55.842C95.3683 55.8047 95.6156 55.7673 95.933 55.73C96.633 55.6367 97.0996 55.5387 97.333 55.436C97.5756 55.3333 97.697 55.142 97.697 54.862C97.697 54.218 97.263 53.896 96.395 53.896C95.9376 53.896 95.6016 53.98 95.387 54.148C95.1723 54.3067 95.0323 54.5913 94.967 55.002H93.105C93.217 53.378 94.3323 52.566 96.451 52.566C98.551 52.566 99.601 53.35 99.601 54.918V58.04C99.601 58.9547 99.685 59.608 99.853 60ZM97.683 56.486C97.4496 56.626 96.983 56.752 96.283 56.864C95.695 56.9573 95.3123 57.074 95.135 57.214C94.9296 57.3913 94.827 57.634 94.827 57.942C94.827 58.2407 94.9203 58.4787 95.107 58.656C95.303 58.824 95.5736 58.908 95.919 58.908C96.451 58.908 96.8756 58.768 97.193 58.488C97.5196 58.1987 97.683 57.802 97.683 57.298V56.486ZM109.74 60H107.864V54.512H107.822L106.408 60H104.532L103.118 54.512H103.076V60H101.2V52.776H104.084L105.442 58.026H105.498L106.856 52.776H109.74V60ZM119.96 50.2V60H117.846V53.63H115.466V52.16H115.718C117.202 52.16 118.07 51.5067 118.322 50.2H119.96ZM129.083 50.284V51.978H125.065L124.687 54.106C125.145 53.6487 125.747 53.42 126.493 53.42C127.436 53.42 128.192 53.714 128.761 54.302C129.331 54.89 129.615 55.6647 129.615 56.626C129.615 57.6527 129.27 58.4973 128.579 59.16C127.889 59.8227 127.002 60.154 125.919 60.154C124.893 60.154 124.053 59.8927 123.399 59.37C122.755 58.838 122.405 58.082 122.349 57.102H124.309C124.356 57.5313 124.524 57.8813 124.813 58.152C125.112 58.4133 125.481 58.544 125.919 58.544C126.414 58.544 126.82 58.3713 127.137 58.026C127.455 57.6713 127.613 57.2187 127.613 56.668C127.613 56.1173 127.459 55.6787 127.151 55.352C126.843 55.0253 126.428 54.862 125.905 54.862C125.28 54.862 124.79 55.1327 124.435 55.674H122.657L123.609 50.284H129.083ZM141.347 60H139.373V54.302H137.469L137.385 56.85C137.376 57.13 137.366 57.354 137.357 57.522C137.348 57.6807 137.32 57.8953 137.273 58.166C137.236 58.4367 137.189 58.656 137.133 58.824C137.077 58.9827 136.988 59.1647 136.867 59.37C136.755 59.566 136.62 59.72 136.461 59.832C136.312 59.9347 136.116 60.0233 135.873 60.098C135.63 60.182 135.36 60.224 135.061 60.224C134.576 60.224 134.216 60.1773 133.983 60.084V58.502C134.216 58.5487 134.403 58.572 134.543 58.572C135.112 58.572 135.411 58.0727 135.439 57.074L135.551 52.776H141.347V60ZM149.716 57.76C149.492 58.5347 149.077 59.1367 148.47 59.566C147.873 59.9953 147.159 60.21 146.328 60.21C145.217 60.21 144.321 59.8647 143.64 59.174C142.968 58.4833 142.632 57.5687 142.632 56.43C142.632 55.31 142.973 54.386 143.654 53.658C144.335 52.93 145.203 52.566 146.258 52.566C147.35 52.566 148.218 52.9393 148.862 53.686C149.506 54.4233 149.828 55.4267 149.828 56.696V56.892H144.648C144.657 57.5173 144.807 57.9933 145.096 58.32C145.395 58.6467 145.81 58.81 146.342 58.81C147.042 58.81 147.532 58.46 147.812 57.76H149.716ZM147.812 55.632C147.765 55.156 147.611 54.7687 147.35 54.47C147.089 54.162 146.725 54.008 146.258 54.008C145.819 54.008 145.455 54.1527 145.166 54.442C144.877 54.7313 144.704 55.128 144.648 55.632H147.812ZM156.837 54.302H154.457V60H152.483V54.302H150.103V52.776H156.837V54.302ZM159.945 50.032V52.692L159.399 56.962H158.405L157.859 52.72V50.032H159.945ZM159.987 57.858V60H157.817V57.858H159.987Z" fill="#EBEBEB"/>
<path d="M83.12 30.032H84.94L88.146 38.474L91.24 30.032H93.074V40H91.828V31.684L88.706 40H87.558L84.38 31.684V40H83.12V30.032ZM101.265 37.718C100.901 39.398 99.8513 40.238 98.1153 40.238C97.0513 40.238 96.216 39.9067 95.6093 39.244C95.012 38.5813 94.7133 37.662 94.7133 36.486C94.7133 35.3193 95.0213 34.3767 95.6373 33.658C96.2626 32.93 97.0746 32.566 98.0733 32.566C99.184 32.566 100.005 32.944 100.537 33.7C101.079 34.4467 101.349 35.394 101.349 36.542V36.71H95.9173L95.9033 36.794C95.9033 37.5593 96.104 38.1613 96.5053 38.6C96.9066 39.0387 97.4573 39.258 98.1573 39.258C98.68 39.258 99.0906 39.1367 99.3893 38.894C99.6973 38.6513 99.9353 38.2593 100.103 37.718H101.265ZM100.117 35.744C100.061 35.0533 99.8513 34.5167 99.4873 34.134C99.1233 33.742 98.6426 33.546 98.0453 33.546C97.4666 33.546 96.986 33.742 96.6033 34.134C96.2206 34.526 95.992 35.0627 95.9173 35.744H100.117ZM103.283 31.768C103.6 31.2733 103.983 30.9093 104.431 30.676C104.879 30.4333 105.448 30.2887 106.139 30.242C106.914 30.186 107.385 30.1113 107.553 30.018C107.665 29.962 107.749 29.8873 107.805 29.794H108.995C108.967 29.9433 108.925 30.0787 108.869 30.2C108.822 30.3213 108.766 30.4287 108.701 30.522C108.645 30.606 108.561 30.6853 108.449 30.76C108.346 30.8347 108.258 30.9 108.183 30.956C108.108 31.0027 107.996 31.0493 107.847 31.096C107.707 31.1333 107.595 31.166 107.511 31.194C107.427 31.2127 107.296 31.2313 107.119 31.25C106.951 31.2687 106.83 31.2827 106.755 31.292C106.68 31.3013 106.545 31.3107 106.349 31.32C106.153 31.3293 106.027 31.3387 105.971 31.348C105.206 31.404 104.608 31.7027 104.179 32.244C103.75 32.776 103.479 33.49 103.367 34.386H103.409C103.614 33.8913 103.941 33.4947 104.389 33.196C104.837 32.8973 105.355 32.748 105.943 32.748C106.97 32.748 107.772 33.0747 108.351 33.728C108.939 34.372 109.233 35.2773 109.233 36.444C109.233 37.648 108.934 38.5813 108.337 39.244C107.749 39.9067 106.918 40.238 105.845 40.238C104.968 40.238 104.226 39.9813 103.619 39.468C103.012 38.9453 102.639 38.1987 102.499 37.228C102.443 36.836 102.415 36.3973 102.415 35.912C102.415 34.036 102.704 32.6547 103.283 31.768ZM103.633 36.486C103.633 37.3073 103.829 37.97 104.221 38.474C104.622 38.978 105.168 39.23 105.859 39.23C106.531 39.23 107.058 38.9873 107.441 38.502C107.824 38.0167 108.015 37.34 108.015 36.472C108.015 35.6227 107.819 34.9553 107.427 34.47C107.035 33.9847 106.503 33.742 105.831 33.742C105.159 33.742 104.622 33.9893 104.221 34.484C103.829 34.9693 103.633 35.6367 103.633 36.486ZM116.824 37.718C116.46 39.398 115.41 40.238 113.674 40.238C112.61 40.238 111.775 39.9067 111.168 39.244C110.571 38.5813 110.272 37.662 110.272 36.486C110.272 35.3193 110.58 34.3767 111.196 33.658C111.821 32.93 112.633 32.566 113.632 32.566C114.743 32.566 115.564 32.944 116.096 33.7C116.637 34.4467 116.908 35.394 116.908 36.542V36.71H111.476L111.462 36.794C111.462 37.5593 111.663 38.1613 112.064 38.6C112.465 39.0387 113.016 39.258 113.716 39.258C114.239 39.258 114.649 39.1367 114.948 38.894C115.256 38.6513 115.494 38.2593 115.662 37.718H116.824ZM115.676 35.744C115.62 35.0533 115.41 34.5167 115.046 34.134C114.682 33.742 114.201 33.546 113.604 33.546C113.025 33.546 112.545 33.742 112.162 34.134C111.779 34.526 111.551 35.0627 111.476 35.744H115.676ZM123.943 32.776V40H122.753V33.826H120.177L120.079 37.018C120.051 38.1193 119.851 38.9173 119.477 39.412C119.104 39.9067 118.637 40.154 118.077 40.154C117.732 40.154 117.447 40.1027 117.223 40V39.034C117.345 39.0993 117.555 39.132 117.853 39.132C118.133 39.132 118.371 38.9827 118.567 38.684C118.773 38.376 118.885 37.8627 118.903 37.144L119.029 32.776H123.943ZM131.135 36.136C131.564 36.528 131.779 37.0647 131.779 37.746C131.779 38.4273 131.569 38.9733 131.149 39.384C130.738 39.7947 130.183 40 129.483 40H125.661V32.776H126.851V35.534H129.427C130.136 35.534 130.705 35.7347 131.135 36.136ZM129.049 36.556H126.851V38.95H129.049C129.534 38.95 129.903 38.8473 130.155 38.642C130.416 38.4273 130.547 38.1287 130.547 37.746C130.547 36.9527 130.047 36.556 129.049 36.556ZM134.152 40H132.962V32.776H134.152V35.646H137.764V32.776H138.954V40H137.764V36.696H134.152V40ZM147.14 39.048V39.972C146.897 40.0653 146.626 40.112 146.328 40.112C145.646 40.112 145.296 39.7573 145.278 39.048C144.596 39.8133 143.724 40.196 142.66 40.196C141.95 40.196 141.386 40.014 140.966 39.65C140.555 39.286 140.35 38.7867 140.35 38.152C140.35 36.864 141.204 36.1127 142.912 35.898C143.024 35.8793 143.187 35.8607 143.402 35.842C144.214 35.7487 144.713 35.6413 144.9 35.52C145.114 35.3707 145.222 35.114 145.222 34.75C145.222 33.9567 144.676 33.56 143.584 33.56C143.024 33.56 142.599 33.6767 142.31 33.91C142.02 34.134 141.848 34.5073 141.792 35.03H140.63C140.648 34.2553 140.924 33.6533 141.456 33.224C141.988 32.7947 142.72 32.58 143.654 32.58C144.671 32.58 145.427 32.8133 145.922 33.28C146.08 33.4293 146.197 33.6253 146.272 33.868C146.346 34.1107 146.388 34.3113 146.398 34.47C146.407 34.6193 146.412 34.848 146.412 35.156C146.412 35.5107 146.402 36.0473 146.384 36.766C146.365 37.4847 146.356 38.0213 146.356 38.376C146.356 38.6373 146.388 38.824 146.454 38.936C146.528 39.0387 146.659 39.09 146.846 39.09C146.92 39.09 147.018 39.076 147.14 39.048ZM145.222 36.248C145.138 36.3133 145.049 36.3693 144.956 36.416C144.862 36.4627 144.741 36.5 144.592 36.528C144.452 36.556 144.354 36.5793 144.298 36.598C144.251 36.6073 144.13 36.626 143.934 36.654C143.738 36.6727 143.635 36.682 143.626 36.682C143.336 36.7193 143.145 36.7473 143.052 36.766C142.968 36.7753 142.8 36.8127 142.548 36.878C142.305 36.9433 142.132 37.018 142.03 37.102C141.927 37.186 141.824 37.312 141.722 37.48C141.628 37.6387 141.582 37.83 141.582 38.054C141.582 38.4273 141.708 38.7213 141.96 38.936C142.221 39.1507 142.576 39.258 143.024 39.258C143.593 39.258 144.102 39.09 144.55 38.754C144.998 38.418 145.222 38.0213 145.222 37.564V36.248ZM153.973 40H152.783V37.046H151.201L148.919 40H147.337L149.829 37.004C149.297 36.92 148.863 36.696 148.527 36.332C148.201 35.9587 148.037 35.4827 148.037 34.904C148.037 34.232 148.238 33.7093 148.639 33.336C149.041 32.9627 149.596 32.776 150.305 32.776H153.973V40ZM152.783 33.826H150.683C149.731 33.826 149.255 34.1853 149.255 34.904C149.255 35.632 149.731 35.996 150.683 35.996H152.783V33.826ZM169.421 36.276C169.421 36.9947 169.333 37.634 169.155 38.194C168.978 38.754 168.661 39.2253 168.203 39.608C167.755 39.9813 167.191 40.168 166.509 40.168C166.248 40.168 165.968 40.0933 165.669 39.944C165.371 39.7947 165.147 39.6313 164.997 39.454H164.969V42.786H163.793V39.454H163.765C163.616 39.6313 163.392 39.7947 163.093 39.944C162.795 40.0933 162.515 40.168 162.253 40.168C161.572 40.168 161.003 39.9813 160.545 39.608C160.097 39.2253 159.785 38.754 159.607 38.194C159.43 37.634 159.341 36.9947 159.341 36.276C159.341 35.1373 159.593 34.2413 160.097 33.588C160.601 32.9253 161.287 32.594 162.155 32.594C162.454 32.594 162.757 32.678 163.065 32.846C163.383 33.0047 163.611 33.182 163.751 33.378H163.793V30.032H164.969V33.378H165.011C165.151 33.182 165.375 33.0047 165.683 32.846C166.001 32.678 166.309 32.594 166.607 32.594C167.475 32.594 168.161 32.9253 168.665 33.588C169.169 34.2413 169.421 35.1373 169.421 36.276ZM168.189 36.304C168.189 35.4733 168.045 34.8153 167.755 34.33C167.466 33.8353 167.027 33.588 166.439 33.588C166.131 33.588 165.833 33.6673 165.543 33.826C165.263 33.9847 165.072 34.2413 164.969 34.596V38.236C165.016 38.4973 165.17 38.7213 165.431 38.908C165.702 39.0853 166.015 39.174 166.369 39.174C166.715 39.174 167.009 39.09 167.251 38.922C167.503 38.754 167.695 38.5253 167.825 38.236C167.956 37.9373 168.049 37.634 168.105 37.326C168.161 37.0087 168.189 36.668 168.189 36.304ZM163.793 38.236V34.596C163.691 34.2413 163.495 33.9847 163.205 33.826C162.925 33.6673 162.631 33.588 162.323 33.588C161.735 33.588 161.297 33.8353 161.007 34.33C160.718 34.8153 160.573 35.4733 160.573 36.304C160.573 36.668 160.601 37.0087 160.657 37.326C160.713 37.634 160.807 37.9373 160.937 38.236C161.068 38.5253 161.255 38.754 161.497 38.922C161.749 39.09 162.048 39.174 162.393 39.174C162.748 39.174 163.056 39.0853 163.317 38.908C163.588 38.7213 163.747 38.4973 163.793 38.236ZM177.273 39.048V39.972C177.03 40.0653 176.759 40.112 176.461 40.112C175.779 40.112 175.429 39.7573 175.411 39.048C174.729 39.8133 173.857 40.196 172.793 40.196C172.083 40.196 171.519 40.014 171.099 39.65C170.688 39.286 170.483 38.7867 170.483 38.152C170.483 36.864 171.337 36.1127 173.045 35.898C173.157 35.8793 173.32 35.8607 173.535 35.842C174.347 35.7487 174.846 35.6413 175.033 35.52C175.247 35.3707 175.355 35.114 175.355 34.75C175.355 33.9567 174.809 33.56 173.717 33.56C173.157 33.56 172.732 33.6767 172.443 33.91C172.153 34.134 171.981 34.5073 171.925 35.03H170.763C170.781 34.2553 171.057 33.6533 171.589 33.224C172.121 32.7947 172.853 32.58 173.787 32.58C174.804 32.58 175.56 32.8133 176.055 33.28C176.213 33.4293 176.33 33.6253 176.405 33.868C176.479 34.1107 176.521 34.3113 176.531 34.47C176.54 34.6193 176.545 34.848 176.545 35.156C176.545 35.5107 176.535 36.0473 176.517 36.766C176.498 37.4847 176.489 38.0213 176.489 38.376C176.489 38.6373 176.521 38.824 176.587 38.936C176.661 39.0387 176.792 39.09 176.979 39.09C177.053 39.09 177.151 39.076 177.273 39.048ZM175.355 36.248C175.271 36.3133 175.182 36.3693 175.089 36.416C174.995 36.4627 174.874 36.5 174.725 36.528C174.585 36.556 174.487 36.5793 174.431 36.598C174.384 36.6073 174.263 36.626 174.067 36.654C173.871 36.6727 173.768 36.682 173.759 36.682C173.469 36.7193 173.278 36.7473 173.185 36.766C173.101 36.7753 172.933 36.8127 172.681 36.878C172.438 36.9433 172.265 37.018 172.163 37.102C172.06 37.186 171.957 37.312 171.855 37.48C171.761 37.6387 171.715 37.83 171.715 38.054C171.715 38.4273 171.841 38.7213 172.093 38.936C172.354 39.1507 172.709 39.258 173.157 39.258C173.726 39.258 174.235 39.09 174.683 38.754C175.131 38.418 175.355 38.0213 175.355 37.564V36.248ZM179.066 31.768C179.383 31.2733 179.766 30.9093 180.214 30.676C180.662 30.4333 181.231 30.2887 181.922 30.242C182.697 30.186 183.168 30.1113 183.336 30.018C183.448 29.962 183.532 29.8873 183.588 29.794H184.778C184.75 29.9433 184.708 30.0787 184.652 30.2C184.605 30.3213 184.549 30.4287 184.484 30.522C184.428 30.606 184.344 30.6853 184.232 30.76C184.129 30.8347 184.041 30.9 183.966 30.956C183.891 31.0027 183.779 31.0493 183.63 31.096C183.49 31.1333 183.378 31.166 183.294 31.194C183.21 31.2127 183.079 31.2313 182.902 31.25C182.734 31.2687 182.613 31.2827 182.538 31.292C182.463 31.3013 182.328 31.3107 182.132 31.32C181.936 31.3293 181.81 31.3387 181.754 31.348C180.989 31.404 180.391 31.7027 179.962 32.244C179.533 32.776 179.262 33.49 179.15 34.386H179.192C179.397 33.8913 179.724 33.4947 180.172 33.196C180.62 32.8973 181.138 32.748 181.726 32.748C182.753 32.748 183.555 33.0747 184.134 33.728C184.722 34.372 185.016 35.2773 185.016 36.444C185.016 37.648 184.717 38.5813 184.12 39.244C183.532 39.9067 182.701 40.238 181.628 40.238C180.751 40.238 180.009 39.9813 179.402 39.468C178.795 38.9453 178.422 38.1987 178.282 37.228C178.226 36.836 178.198 36.3973 178.198 35.912C178.198 34.036 178.487 32.6547 179.066 31.768ZM179.416 36.486C179.416 37.3073 179.612 37.97 180.004 38.474C180.405 38.978 180.951 39.23 181.642 39.23C182.314 39.23 182.841 38.9873 183.224 38.502C183.607 38.0167 183.798 37.34 183.798 36.472C183.798 35.6227 183.602 34.9553 183.21 34.47C182.818 33.9847 182.286 33.742 181.614 33.742C180.942 33.742 180.405 33.9893 180.004 34.484C179.612 34.9693 179.416 35.6367 179.416 36.486ZM187.553 32.776V33.798C188.076 32.9673 188.888 32.552 189.989 32.552C190.997 32.552 191.795 32.8927 192.383 33.574C192.98 34.2553 193.279 35.1793 193.279 36.346C193.279 37.5127 192.985 38.446 192.397 39.146C191.818 39.8367 191.034 40.182 190.045 40.182C189.009 40.182 188.202 39.7853 187.623 38.992V42.786H186.433V32.776H187.553ZM189.807 33.546C189.116 33.546 188.57 33.798 188.169 34.302C187.777 34.7967 187.581 35.4827 187.581 36.36C187.581 37.2373 187.782 37.928 188.183 38.432C188.594 38.9267 189.149 39.174 189.849 39.174C190.53 39.174 191.067 38.922 191.459 38.418C191.851 37.914 192.047 37.228 192.047 36.36C192.047 35.4827 191.846 34.7967 191.445 34.302C191.053 33.798 190.507 33.546 189.807 33.546ZM196.258 40H194.732V32.776H195.922V38.67H195.95L199.198 32.776H200.724V40H199.534V34.106H199.506L196.258 40ZM208.979 40H207.467L204.835 36.444L203.701 37.55V40H202.511V32.776H203.701V36.22L207.005 32.776H208.601L205.689 35.618L208.979 40ZM216.169 39.048V39.972C215.926 40.0653 215.656 40.112 215.357 40.112C214.676 40.112 214.326 39.7573 214.307 39.048C213.626 39.8133 212.753 40.196 211.689 40.196C210.98 40.196 210.415 40.014 209.995 39.65C209.584 39.286 209.379 38.7867 209.379 38.152C209.379 36.864 210.233 36.1127 211.941 35.898C212.053 35.8793 212.216 35.8607 212.431 35.842C213.243 35.7487 213.742 35.6413 213.929 35.52C214.144 35.3707 214.251 35.114 214.251 34.75C214.251 33.9567 213.705 33.56 212.613 33.56C212.053 33.56 211.628 33.6767 211.339 33.91C211.05 34.134 210.877 34.5073 210.821 35.03H209.659C209.678 34.2553 209.953 33.6533 210.485 33.224C211.017 32.7947 211.75 32.58 212.683 32.58C213.7 32.58 214.456 32.8133 214.951 33.28C215.11 33.4293 215.226 33.6253 215.301 33.868C215.376 34.1107 215.418 34.3113 215.427 34.47C215.436 34.6193 215.441 34.848 215.441 35.156C215.441 35.5107 215.432 36.0473 215.413 36.766C215.394 37.4847 215.385 38.0213 215.385 38.376C215.385 38.6373 215.418 38.824 215.483 38.936C215.558 39.0387 215.688 39.09 215.875 39.09C215.95 39.09 216.048 39.076 216.169 39.048ZM214.251 36.248C214.167 36.3133 214.078 36.3693 213.985 36.416C213.892 36.4627 213.77 36.5 213.621 36.528C213.481 36.556 213.383 36.5793 213.327 36.598C213.28 36.6073 213.159 36.626 212.963 36.654C212.767 36.6727 212.664 36.682 212.655 36.682C212.366 36.7193 212.174 36.7473 212.081 36.766C211.997 36.7753 211.829 36.8127 211.577 36.878C211.334 36.9433 211.162 37.018 211.059 37.102C210.956 37.186 210.854 37.312 210.751 37.48C210.658 37.6387 210.611 37.83 210.611 38.054C210.611 38.4273 210.737 38.7213 210.989 38.936C211.25 39.1507 211.605 39.258 212.053 39.258C212.622 39.258 213.131 39.09 213.579 38.754C214.027 38.418 214.251 38.0213 214.251 37.564V36.248Z" fill="#EBEBEB"/>
<path d="M83.2 7H91.2V10.08H86.4V21H83.2V7ZM105.393 21H101.893L101.193 18.8H95.993L95.293 21H91.793L96.553 7H100.633L105.393 21ZM98.593 10.66L96.953 15.8H100.233L98.593 10.66ZM108.587 7H113.887C115.273 7 116.433 7.46667 117.367 8.4C118.313 9.34667 118.787 10.48 118.787 11.8C118.787 13.12 118.313 14.2533 117.367 15.2C116.433 16.1333 115.273 16.6 113.887 16.6H111.787V21H108.587V7ZM111.787 13.6H113.887C114.38 13.6 114.787 13.4267 115.107 13.08C115.427 12.7333 115.587 12.3067 115.587 11.8C115.587 11.2933 115.427 10.8667 115.107 10.52C114.787 10.1733 114.38 10 113.887 10H111.787V13.6ZM133.377 21H129.877L129.177 18.8H123.977L123.277 21H119.777L124.537 7H128.617L133.377 21ZM126.577 10.66L124.937 15.8H128.217L126.577 10.66ZM144.171 12.36V7H147.371V21H144.171V15.44H139.771V21H136.571V7H139.771V12.36H144.171ZM150.774 7H161.174V10.08H157.574V21H154.374V10.08H150.774V7ZM177.775 17.92V7H180.975V21H164.575V7H167.775V17.92H171.175V7H174.375V17.92H177.775ZM191.784 13.82L196.704 21H193.064L188.584 14.52V21H185.384V7H188.584V13.08L192.864 7H196.504L191.784 13.82ZM212.694 21H209.194L208.494 18.8H203.294L202.594 21H199.094L203.854 7H207.934L212.694 21ZM205.894 10.66L204.254 15.8H207.534L205.894 10.66ZM224.097 19.76V21.4H220.977V19.76C219.07 19.5467 217.544 18.9267 216.397 17.9C215.264 16.8867 214.697 15.5867 214.697 14C214.697 12.4267 215.264 11.1333 216.397 10.12C217.557 9.08 219.084 8.45333 220.977 8.24V6.6H224.097V8.24C225.99 8.45333 227.517 9.08 228.677 10.12C229.81 11.1333 230.377 12.4267 230.377 14C230.377 15.5867 229.81 16.8867 228.677 17.9C227.53 18.9267 226.004 19.5467 224.097 19.76ZM220.977 16.82V11.18C218.924 11.46 217.897 12.4 217.897 14C217.897 15.6 218.924 16.54 220.977 16.82ZM224.097 11.18V16.82C226.15 16.54 227.177 15.6 227.177 14C227.177 12.4 226.15 11.46 224.097 11.18Z" fill="#EBEBEB"/>
<path d="M67.697 3.77038C67.7804 3.60363 67.8198 3.41833 67.8114 3.23208C67.803 3.04583 67.7472 2.86481 67.6491 2.70622C67.5511 2.54763 67.4142 2.41672 67.2514 2.32593C67.0885 2.23515 66.9052 2.18749 66.7187 2.1875H3.28125C3.09481 2.18749 2.91147 2.23515 2.74863 2.32593C2.58579 2.41672 2.44886 2.54763 2.35084 2.70622C2.25283 2.86481 2.19698 3.04583 2.1886 3.23208C2.18023 3.41833 2.2196 3.60363 2.30299 3.77038L4.375 7.9144V62.0856L2.30299 66.2296C2.2196 66.3964 2.18023 66.5817 2.1886 66.7679C2.19698 66.9542 2.25283 67.1352 2.35084 67.2938C2.44886 67.4524 2.58579 67.5833 2.74863 67.6741C2.91147 67.7649 3.09481 67.8125 3.28125 67.8125H66.7187C66.9052 67.8125 67.0885 67.7649 67.2514 67.6741C67.4142 67.5833 67.5511 67.4524 67.6491 67.2938C67.7472 67.1352 67.803 66.9542 67.8114 66.7679C67.8198 66.5817 67.7804 66.3964 67.697 66.2296L65.625 62.0856V7.9144L67.697 3.77038ZM6.5625 8.75H22.9687V61.25H6.5625V8.75ZM25.1562 8.75H44.8437V61.25H25.1562V8.75ZM47.0312 8.75H63.4375V61.25H47.0312V8.75ZM64.949 4.375L63.8553 6.5625H6.14473L5.05098 4.375H64.949ZM5.05098 65.625L6.14473 63.4375H63.8553L64.949 65.625H5.05098Z" fill="#EBEBEB"/>
<path d="M19.6875 10.9375H9.84375C9.70012 10.9375 9.55789 10.9658 9.42519 11.0207C9.29248 11.0757 9.17191 11.1563 9.07034 11.2578C8.96878 11.3594 8.88821 11.48 8.83325 11.6127C8.77828 11.7454 8.75 11.8876 8.75 12.0312V32.8125C8.75 32.9561 8.77828 33.0984 8.83325 33.2311C8.88821 33.3638 8.96878 33.4843 9.07034 33.5859C9.17191 33.6875 9.29248 33.768 9.42519 33.823C9.55789 33.878 9.70012 33.9063 9.84375 33.9062H14.2188V31.7188H10.9375V13.125H18.5938V28.4375H20.7812V12.0312C20.7813 11.8876 20.753 11.7454 20.698 11.6127C20.643 11.48 20.5625 11.3594 20.4609 11.2578C20.3593 11.1563 20.2388 11.0757 20.1061 11.0207C19.9734 10.9658 19.8311 10.9375 19.6875 10.9375Z" fill="#EBEBEB"/>
<path d="M16.4062 32.8125V37.1875C16.4069 37.7675 16.6376 38.3235 17.0477 38.7336C17.4578 39.1437 18.0138 39.3743 18.5938 39.375H20.7812V37.1875H18.5938V32.8125H20.7812V30.625H18.5938C18.0138 30.6257 17.4578 30.8563 17.0477 31.2664C16.6376 31.6765 16.4069 32.2325 16.4062 32.8125Z" fill="#EBEBEB"/>
<path d="M18.5938 56.875H10.9375V38.2812H14.2188V36.0938H9.84375C9.70012 36.0937 9.55789 36.122 9.42519 36.177C9.29248 36.232 9.17191 36.3125 9.07034 36.4141C8.96878 36.5157 8.88821 36.6362 8.83325 36.7689C8.77828 36.9016 8.75 37.0439 8.75 37.1875V57.9688C8.75 58.1124 8.77828 58.2546 8.83325 58.3873C8.88821 58.52 8.96878 58.6406 9.07034 58.7422C9.17191 58.8437 9.29248 58.9243 9.42519 58.9792C9.55789 59.0342 9.70012 59.0625 9.84375 59.0625H19.6875C19.8311 59.0625 19.9734 59.0342 20.1061 58.9792C20.2388 58.9243 20.3593 58.8437 20.4609 58.7422C20.5625 58.6406 20.643 58.52 20.698 58.3873C20.753 58.2546 20.7813 58.1124 20.7812 57.9688V41.5625H18.5938V56.875Z" fill="#EBEBEB"/>
<path d="M60.1562 10.9375H50.3125C50.1689 10.9375 50.0266 10.9658 49.8939 11.0207C49.7612 11.0757 49.6407 11.1563 49.5391 11.2578C49.4375 11.3594 49.357 11.48 49.302 11.6127C49.247 11.7454 49.2187 11.8876 49.2188 12.0312V28.4375H51.4062V13.125H59.0625V31.7188H55.7812V33.9062H60.1562C60.2999 33.9063 60.4421 33.878 60.5748 33.823C60.7075 33.768 60.8281 33.6875 60.9297 33.5859C61.0312 33.4843 61.1118 33.3638 61.1667 33.2311C61.2217 33.0984 61.25 32.9561 61.25 32.8125V12.0312C61.25 11.8876 61.2217 11.7454 61.1667 11.6127C61.1118 11.48 61.0312 11.3594 60.9297 11.2578C60.8281 11.1563 60.7075 11.0757 60.5748 11.0207C60.4421 10.9658 60.2999 10.9375 60.1562 10.9375Z" fill="#EBEBEB"/>
<path d="M53.5938 37.1875V32.8125C53.5931 32.2325 53.3624 31.6765 52.9523 31.2664C52.5422 30.8563 51.9862 30.6257 51.4062 30.625H49.2188V32.8125H51.4062V37.1875H49.2188V39.375H51.4062C51.9862 39.3743 52.5422 39.1437 52.9523 38.7336C53.3624 38.3235 53.5931 37.7675 53.5938 37.1875Z" fill="#EBEBEB"/>
<path d="M60.1562 36.0938H55.7812V38.2812H59.0625V56.875H51.4062V41.5625H49.2188V57.9688C49.2187 58.1124 49.247 58.2546 49.302 58.3873C49.357 58.52 49.4375 58.6406 49.5391 58.7422C49.6407 58.8437 49.7612 58.9243 49.8939 58.9792C50.0266 59.0342 50.1689 59.0625 50.3125 59.0625H60.1562C60.2999 59.0625 60.4421 59.0342 60.5748 58.9792C60.7075 58.9243 60.8281 58.8437 60.9297 58.7422C61.0312 58.6406 61.1118 58.52 61.1667 58.3873C61.2217 58.2546 61.25 58.1124 61.25 57.9688V37.1875C61.25 37.0439 61.2217 36.9016 61.1667 36.7689C61.1118 36.6362 61.0312 36.5157 60.9297 36.4141C60.8281 36.3125 60.7075 36.232 60.5748 36.177C60.4421 36.122 60.2999 36.0937 60.1562 36.0938Z" fill="#EBEBEB"/>
<path d="M41.5625 10.9375H28.4375C28.2939 10.9375 28.1516 10.9658 28.0189 11.0207C27.8862 11.0757 27.7657 11.1563 27.6641 11.2578C27.5625 11.3594 27.482 11.48 27.427 11.6127C27.372 11.7454 27.3437 11.8876 27.3438 12.0312V57.9688C27.3437 58.1124 27.372 58.2546 27.427 58.3873C27.482 58.52 27.5625 58.6406 27.6641 58.7422C27.7657 58.8437 27.8862 58.9243 28.0189 58.9792C28.1516 59.0342 28.2939 59.0625 28.4375 59.0625H41.5625C41.7061 59.0625 41.8484 59.0342 41.9811 58.9792C42.1138 58.9243 42.2343 58.8437 42.3359 58.7422C42.4375 58.6406 42.518 58.52 42.573 58.3873C42.628 58.2546 42.6563 58.1124 42.6562 57.9688V12.0312C42.6563 11.8876 42.628 11.7454 42.573 11.6127C42.518 11.48 42.4375 11.3594 42.3359 11.2578C42.2343 11.1563 42.1138 11.0757 41.9811 11.0207C41.8484 10.9658 41.7061 10.9375 41.5625 10.9375ZM40.4688 56.875H29.5312V13.125H40.4688V56.875Z" fill="#EBEBEB"/>
</g>
<defs>
<clipPath id="clip0_23_147">
<rect width="240" height="70" fill="white"/>
</clipPath>
</defs>
</svg>
