<svg width="240" height="70" viewBox="0 0 240 70" fill="none" xmlns="http://www.w3.org/2000/svg">
<g clip-path="url(#clip0_67_142)">
<path d="M83.12 39.032H84.94L88.146 47.474L91.24 39.032H93.074V49H91.828V40.684L88.706 49H87.558L84.38 40.684V49H83.12V39.032ZM101.265 46.718C100.901 48.398 99.8513 49.238 98.1153 49.238C97.0513 49.238 96.216 48.9067 95.6093 48.244C95.012 47.5813 94.7133 46.662 94.7133 45.486C94.7133 44.3193 95.0213 43.3767 95.6373 42.658C96.2626 41.93 97.0746 41.566 98.0733 41.566C99.184 41.566 100.005 41.944 100.537 42.7C101.079 43.4467 101.349 44.394 101.349 45.542V45.71H95.9173L95.9033 45.794C95.9033 46.5593 96.104 47.1613 96.5053 47.6C96.9066 48.0387 97.4573 48.258 98.1573 48.258C98.68 48.258 99.0906 48.1367 99.3893 47.894C99.6973 47.6513 99.9353 47.2593 100.103 46.718H101.265ZM100.117 44.744C100.061 44.0533 99.8513 43.5167 99.4873 43.134C99.1233 42.742 98.6426 42.546 98.0453 42.546C97.4666 42.546 96.986 42.742 96.6033 43.134C96.2206 43.526 95.992 44.0627 95.9173 44.744H100.117ZM103.283 40.768C103.6 40.2733 103.983 39.9093 104.431 39.676C104.879 39.4333 105.448 39.2887 106.139 39.242C106.914 39.186 107.385 39.1113 107.553 39.018C107.665 38.962 107.749 38.8873 107.805 38.794H108.995C108.967 38.9433 108.925 39.0787 108.869 39.2C108.822 39.3213 108.766 39.4287 108.701 39.522C108.645 39.606 108.561 39.6853 108.449 39.76C108.346 39.8347 108.258 39.9 108.183 39.956C108.108 40.0027 107.996 40.0493 107.847 40.096C107.707 40.1333 107.595 40.166 107.511 40.194C107.427 40.2127 107.296 40.2313 107.119 40.25C106.951 40.2687 106.83 40.2827 106.755 40.292C106.68 40.3013 106.545 40.3107 106.349 40.32C106.153 40.3293 106.027 40.3387 105.971 40.348C105.206 40.404 104.608 40.7027 104.179 41.244C103.75 41.776 103.479 42.49 103.367 43.386H103.409C103.614 42.8913 103.941 42.4947 104.389 42.196C104.837 41.8973 105.355 41.748 105.943 41.748C106.97 41.748 107.772 42.0747 108.351 42.728C108.939 43.372 109.233 44.2773 109.233 45.444C109.233 46.648 108.934 47.5813 108.337 48.244C107.749 48.9067 106.918 49.238 105.845 49.238C104.968 49.238 104.226 48.9813 103.619 48.468C103.012 47.9453 102.639 47.1987 102.499 46.228C102.443 45.836 102.415 45.3973 102.415 44.912C102.415 43.036 102.704 41.6547 103.283 40.768ZM103.633 45.486C103.633 46.3073 103.829 46.97 104.221 47.474C104.622 47.978 105.168 48.23 105.859 48.23C106.531 48.23 107.058 47.9873 107.441 47.502C107.824 47.0167 108.015 46.34 108.015 45.472C108.015 44.6227 107.819 43.9553 107.427 43.47C107.035 42.9847 106.503 42.742 105.831 42.742C105.159 42.742 104.622 42.9893 104.221 43.484C103.829 43.9693 103.633 44.6367 103.633 45.486ZM116.824 46.718C116.46 48.398 115.41 49.238 113.674 49.238C112.61 49.238 111.775 48.9067 111.168 48.244C110.571 47.5813 110.272 46.662 110.272 45.486C110.272 44.3193 110.58 43.3767 111.196 42.658C111.821 41.93 112.633 41.566 113.632 41.566C114.743 41.566 115.564 41.944 116.096 42.7C116.637 43.4467 116.908 44.394 116.908 45.542V45.71H111.476L111.462 45.794C111.462 46.5593 111.663 47.1613 112.064 47.6C112.465 48.0387 113.016 48.258 113.716 48.258C114.239 48.258 114.649 48.1367 114.948 47.894C115.256 47.6513 115.494 47.2593 115.662 46.718H116.824ZM115.676 44.744C115.62 44.0533 115.41 43.5167 115.046 43.134C114.682 42.742 114.201 42.546 113.604 42.546C113.025 42.546 112.545 42.742 112.162 43.134C111.779 43.526 111.551 44.0627 111.476 44.744H115.676ZM123.943 41.776V49H122.753V42.826H120.177L120.079 46.018C120.051 47.1193 119.851 47.9173 119.477 48.412C119.104 48.9067 118.637 49.154 118.077 49.154C117.732 49.154 117.447 49.1027 117.223 49V48.034C117.345 48.0993 117.555 48.132 117.853 48.132C118.133 48.132 118.371 47.9827 118.567 47.684C118.773 47.376 118.885 46.8627 118.903 46.144L119.029 41.776H123.943ZM131.135 45.136C131.564 45.528 131.779 46.0647 131.779 46.746C131.779 47.4273 131.569 47.9733 131.149 48.384C130.738 48.7947 130.183 49 129.483 49H125.661V41.776H126.851V44.534H129.427C130.136 44.534 130.705 44.7347 131.135 45.136ZM129.049 45.556H126.851V47.95H129.049C129.534 47.95 129.903 47.8473 130.155 47.642C130.416 47.4273 130.547 47.1287 130.547 46.746C130.547 45.9527 130.047 45.556 129.049 45.556ZM134.152 49H132.962V41.776H134.152V44.646H137.764V41.776H138.954V49H137.764V45.696H134.152V49ZM147.14 48.048V48.972C146.897 49.0653 146.626 49.112 146.328 49.112C145.646 49.112 145.296 48.7573 145.278 48.048C144.596 48.8133 143.724 49.196 142.66 49.196C141.95 49.196 141.386 49.014 140.966 48.65C140.555 48.286 140.35 47.7867 140.35 47.152C140.35 45.864 141.204 45.1127 142.912 44.898C143.024 44.8793 143.187 44.8607 143.402 44.842C144.214 44.7487 144.713 44.6413 144.9 44.52C145.114 44.3707 145.222 44.114 145.222 43.75C145.222 42.9567 144.676 42.56 143.584 42.56C143.024 42.56 142.599 42.6767 142.31 42.91C142.02 43.134 141.848 43.5073 141.792 44.03H140.63C140.648 43.2553 140.924 42.6533 141.456 42.224C141.988 41.7947 142.72 41.58 143.654 41.58C144.671 41.58 145.427 41.8133 145.922 42.28C146.08 42.4293 146.197 42.6253 146.272 42.868C146.346 43.1107 146.388 43.3113 146.398 43.47C146.407 43.6193 146.412 43.848 146.412 44.156C146.412 44.5107 146.402 45.0473 146.384 45.766C146.365 46.4847 146.356 47.0213 146.356 47.376C146.356 47.6373 146.388 47.824 146.454 47.936C146.528 48.0387 146.659 48.09 146.846 48.09C146.92 48.09 147.018 48.076 147.14 48.048ZM145.222 45.248C145.138 45.3133 145.049 45.3693 144.956 45.416C144.862 45.4627 144.741 45.5 144.592 45.528C144.452 45.556 144.354 45.5793 144.298 45.598C144.251 45.6073 144.13 45.626 143.934 45.654C143.738 45.6727 143.635 45.682 143.626 45.682C143.336 45.7193 143.145 45.7473 143.052 45.766C142.968 45.7753 142.8 45.8127 142.548 45.878C142.305 45.9433 142.132 46.018 142.03 46.102C141.927 46.186 141.824 46.312 141.722 46.48C141.628 46.6387 141.582 46.83 141.582 47.054C141.582 47.4273 141.708 47.7213 141.96 47.936C142.221 48.1507 142.576 48.258 143.024 48.258C143.593 48.258 144.102 48.09 144.55 47.754C144.998 47.418 145.222 47.0213 145.222 46.564V45.248ZM153.973 49H152.783V46.046H151.201L148.919 49H147.337L149.829 46.004C149.297 45.92 148.863 45.696 148.527 45.332C148.201 44.9587 148.037 44.4827 148.037 43.904C148.037 43.232 148.238 42.7093 148.639 42.336C149.041 41.9627 149.596 41.776 150.305 41.776H153.973V49ZM152.783 42.826H150.683C149.731 42.826 149.255 43.1853 149.255 43.904C149.255 44.632 149.731 44.996 150.683 44.996H152.783V42.826ZM169.421 45.276C169.421 45.9947 169.333 46.634 169.155 47.194C168.978 47.754 168.661 48.2253 168.203 48.608C167.755 48.9813 167.191 49.168 166.509 49.168C166.248 49.168 165.968 49.0933 165.669 48.944C165.371 48.7947 165.147 48.6313 164.997 48.454H164.969V51.786H163.793V48.454H163.765C163.616 48.6313 163.392 48.7947 163.093 48.944C162.795 49.0933 162.515 49.168 162.253 49.168C161.572 49.168 161.003 48.9813 160.545 48.608C160.097 48.2253 159.785 47.754 159.607 47.194C159.43 46.634 159.341 45.9947 159.341 45.276C159.341 44.1373 159.593 43.2413 160.097 42.588C160.601 41.9253 161.287 41.594 162.155 41.594C162.454 41.594 162.757 41.678 163.065 41.846C163.383 42.0047 163.611 42.182 163.751 42.378H163.793V39.032H164.969V42.378H165.011C165.151 42.182 165.375 42.0047 165.683 41.846C166.001 41.678 166.309 41.594 166.607 41.594C167.475 41.594 168.161 41.9253 168.665 42.588C169.169 43.2413 169.421 44.1373 169.421 45.276ZM168.189 45.304C168.189 44.4733 168.045 43.8153 167.755 43.33C167.466 42.8353 167.027 42.588 166.439 42.588C166.131 42.588 165.833 42.6673 165.543 42.826C165.263 42.9847 165.072 43.2413 164.969 43.596V47.236C165.016 47.4973 165.17 47.7213 165.431 47.908C165.702 48.0853 166.015 48.174 166.369 48.174C166.715 48.174 167.009 48.09 167.251 47.922C167.503 47.754 167.695 47.5253 167.825 47.236C167.956 46.9373 168.049 46.634 168.105 46.326C168.161 46.0087 168.189 45.668 168.189 45.304ZM163.793 47.236V43.596C163.691 43.2413 163.495 42.9847 163.205 42.826C162.925 42.6673 162.631 42.588 162.323 42.588C161.735 42.588 161.297 42.8353 161.007 43.33C160.718 43.8153 160.573 44.4733 160.573 45.304C160.573 45.668 160.601 46.0087 160.657 46.326C160.713 46.634 160.807 46.9373 160.937 47.236C161.068 47.5253 161.255 47.754 161.497 47.922C161.749 48.09 162.048 48.174 162.393 48.174C162.748 48.174 163.056 48.0853 163.317 47.908C163.588 47.7213 163.747 47.4973 163.793 47.236ZM177.273 48.048V48.972C177.03 49.0653 176.759 49.112 176.461 49.112C175.779 49.112 175.429 48.7573 175.411 48.048C174.729 48.8133 173.857 49.196 172.793 49.196C172.083 49.196 171.519 49.014 171.099 48.65C170.688 48.286 170.483 47.7867 170.483 47.152C170.483 45.864 171.337 45.1127 173.045 44.898C173.157 44.8793 173.32 44.8607 173.535 44.842C174.347 44.7487 174.846 44.6413 175.033 44.52C175.247 44.3707 175.355 44.114 175.355 43.75C175.355 42.9567 174.809 42.56 173.717 42.56C173.157 42.56 172.732 42.6767 172.443 42.91C172.153 43.134 171.981 43.5073 171.925 44.03H170.763C170.781 43.2553 171.057 42.6533 171.589 42.224C172.121 41.7947 172.853 41.58 173.787 41.58C174.804 41.58 175.56 41.8133 176.055 42.28C176.213 42.4293 176.33 42.6253 176.405 42.868C176.479 43.1107 176.521 43.3113 176.531 43.47C176.54 43.6193 176.545 43.848 176.545 44.156C176.545 44.5107 176.535 45.0473 176.517 45.766C176.498 46.4847 176.489 47.0213 176.489 47.376C176.489 47.6373 176.521 47.824 176.587 47.936C176.661 48.0387 176.792 48.09 176.979 48.09C177.053 48.09 177.151 48.076 177.273 48.048ZM175.355 45.248C175.271 45.3133 175.182 45.3693 175.089 45.416C174.995 45.4627 174.874 45.5 174.725 45.528C174.585 45.556 174.487 45.5793 174.431 45.598C174.384 45.6073 174.263 45.626 174.067 45.654C173.871 45.6727 173.768 45.682 173.759 45.682C173.469 45.7193 173.278 45.7473 173.185 45.766C173.101 45.7753 172.933 45.8127 172.681 45.878C172.438 45.9433 172.265 46.018 172.163 46.102C172.06 46.186 171.957 46.312 171.855 46.48C171.761 46.6387 171.715 46.83 171.715 47.054C171.715 47.4273 171.841 47.7213 172.093 47.936C172.354 48.1507 172.709 48.258 173.157 48.258C173.726 48.258 174.235 48.09 174.683 47.754C175.131 47.418 175.355 47.0213 175.355 46.564V45.248ZM179.066 40.768C179.383 40.2733 179.766 39.9093 180.214 39.676C180.662 39.4333 181.231 39.2887 181.922 39.242C182.697 39.186 183.168 39.1113 183.336 39.018C183.448 38.962 183.532 38.8873 183.588 38.794H184.778C184.75 38.9433 184.708 39.0787 184.652 39.2C184.605 39.3213 184.549 39.4287 184.484 39.522C184.428 39.606 184.344 39.6853 184.232 39.76C184.129 39.8347 184.041 39.9 183.966 39.956C183.891 40.0027 183.779 40.0493 183.63 40.096C183.49 40.1333 183.378 40.166 183.294 40.194C183.21 40.2127 183.079 40.2313 182.902 40.25C182.734 40.2687 182.613 40.2827 182.538 40.292C182.463 40.3013 182.328 40.3107 182.132 40.32C181.936 40.3293 181.81 40.3387 181.754 40.348C180.989 40.404 180.391 40.7027 179.962 41.244C179.533 41.776 179.262 42.49 179.15 43.386H179.192C179.397 42.8913 179.724 42.4947 180.172 42.196C180.62 41.8973 181.138 41.748 181.726 41.748C182.753 41.748 183.555 42.0747 184.134 42.728C184.722 43.372 185.016 44.2773 185.016 45.444C185.016 46.648 184.717 47.5813 184.12 48.244C183.532 48.9067 182.701 49.238 181.628 49.238C180.751 49.238 180.009 48.9813 179.402 48.468C178.795 47.9453 178.422 47.1987 178.282 46.228C178.226 45.836 178.198 45.3973 178.198 44.912C178.198 43.036 178.487 41.6547 179.066 40.768ZM179.416 45.486C179.416 46.3073 179.612 46.97 180.004 47.474C180.405 47.978 180.951 48.23 181.642 48.23C182.314 48.23 182.841 47.9873 183.224 47.502C183.607 47.0167 183.798 46.34 183.798 45.472C183.798 44.6227 183.602 43.9553 183.21 43.47C182.818 42.9847 182.286 42.742 181.614 42.742C180.942 42.742 180.405 42.9893 180.004 43.484C179.612 43.9693 179.416 44.6367 179.416 45.486ZM187.553 41.776V42.798C188.076 41.9673 188.888 41.552 189.989 41.552C190.997 41.552 191.795 41.8927 192.383 42.574C192.98 43.2553 193.279 44.1793 193.279 45.346C193.279 46.5127 192.985 47.446 192.397 48.146C191.818 48.8367 191.034 49.182 190.045 49.182C189.009 49.182 188.202 48.7853 187.623 47.992V51.786H186.433V41.776H187.553ZM189.807 42.546C189.116 42.546 188.57 42.798 188.169 43.302C187.777 43.7967 187.581 44.4827 187.581 45.36C187.581 46.2373 187.782 46.928 188.183 47.432C188.594 47.9267 189.149 48.174 189.849 48.174C190.53 48.174 191.067 47.922 191.459 47.418C191.851 46.914 192.047 46.228 192.047 45.36C192.047 44.4827 191.846 43.7967 191.445 43.302C191.053 42.798 190.507 42.546 189.807 42.546ZM196.258 49H194.732V41.776H195.922V47.67H195.95L199.198 41.776H200.724V49H199.534V43.106H199.506L196.258 49ZM208.979 49H207.467L204.835 45.444L203.701 46.55V49H202.511V41.776H203.701V45.22L207.005 41.776H208.601L205.689 44.618L208.979 49ZM216.169 48.048V48.972C215.926 49.0653 215.656 49.112 215.357 49.112C214.676 49.112 214.326 48.7573 214.307 48.048C213.626 48.8133 212.753 49.196 211.689 49.196C210.98 49.196 210.415 49.014 209.995 48.65C209.584 48.286 209.379 47.7867 209.379 47.152C209.379 45.864 210.233 45.1127 211.941 44.898C212.053 44.8793 212.216 44.8607 212.431 44.842C213.243 44.7487 213.742 44.6413 213.929 44.52C214.144 44.3707 214.251 44.114 214.251 43.75C214.251 42.9567 213.705 42.56 212.613 42.56C212.053 42.56 211.628 42.6767 211.339 42.91C211.05 43.134 210.877 43.5073 210.821 44.03H209.659C209.678 43.2553 209.953 42.6533 210.485 42.224C211.017 41.7947 211.75 41.58 212.683 41.58C213.7 41.58 214.456 41.8133 214.951 42.28C215.11 42.4293 215.226 42.6253 215.301 42.868C215.376 43.1107 215.418 43.3113 215.427 43.47C215.436 43.6193 215.441 43.848 215.441 44.156C215.441 44.5107 215.432 45.0473 215.413 45.766C215.394 46.4847 215.385 47.0213 215.385 47.376C215.385 47.6373 215.418 47.824 215.483 47.936C215.558 48.0387 215.688 48.09 215.875 48.09C215.95 48.09 216.048 48.076 216.169 48.048ZM214.251 45.248C214.167 45.3133 214.078 45.3693 213.985 45.416C213.892 45.4627 213.77 45.5 213.621 45.528C213.481 45.556 213.383 45.5793 213.327 45.598C213.28 45.6073 213.159 45.626 212.963 45.654C212.767 45.6727 212.664 45.682 212.655 45.682C212.366 45.7193 212.174 45.7473 212.081 45.766C211.997 45.7753 211.829 45.8127 211.577 45.878C211.334 45.9433 211.162 46.018 211.059 46.102C210.956 46.186 210.854 46.312 210.751 46.48C210.658 46.6387 210.611 46.83 210.611 47.054C210.611 47.4273 210.737 47.7213 210.989 47.936C211.25 48.1507 211.605 48.258 212.053 48.258C212.622 48.258 213.131 48.09 213.579 47.754C214.027 47.418 214.251 47.0213 214.251 46.564V45.248Z" fill="#000000"/>
<path d="M83.2 16H91.2V19.08H86.4V30H83.2V16ZM105.393 30H101.893L101.193 27.8H95.993L95.293 30H91.793L96.553 16H100.633L105.393 30ZM98.593 19.66L96.953 24.8H100.233L98.593 19.66ZM108.587 16H113.887C115.273 16 116.433 16.4667 117.367 17.4C118.313 18.3467 118.787 19.48 118.787 20.8C118.787 22.12 118.313 23.2533 117.367 24.2C116.433 25.1333 115.273 25.6 113.887 25.6H111.787V30H108.587V16ZM111.787 22.6H113.887C114.38 22.6 114.787 22.4267 115.107 22.08C115.427 21.7333 115.587 21.3067 115.587 20.8C115.587 20.2933 115.427 19.8667 115.107 19.52C114.787 19.1733 114.38 19 113.887 19H111.787V22.6ZM133.377 30H129.877L129.177 27.8H123.977L123.277 30H119.777L124.537 16H128.617L133.377 30ZM126.577 19.66L124.937 24.8H128.217L126.577 19.66ZM144.171 21.36V16H147.371V30H144.171V24.44H139.771V30H136.571V16H139.771V21.36H144.171ZM150.774 16H161.174V19.08H157.574V30H154.374V19.08H150.774V16ZM177.775 26.92V16H180.975V30H164.575V16H167.775V26.92H171.175V16H174.375V26.92H177.775ZM191.784 22.82L196.704 30H193.064L188.584 23.52V30H185.384V16H188.584V22.08L192.864 16H196.504L191.784 22.82ZM212.694 30H209.194L208.494 27.8H203.294L202.594 30H199.094L203.854 16H207.934L212.694 30ZM205.894 19.66L204.254 24.8H207.534L205.894 19.66ZM224.097 28.76V30.4H220.977V28.76C219.07 28.5467 217.544 27.9267 216.397 26.9C215.264 25.8867 214.697 24.5867 214.697 23C214.697 21.4267 215.264 20.1333 216.397 19.12C217.557 18.08 219.084 17.4533 220.977 17.24V15.6H224.097V17.24C225.99 17.4533 227.517 18.08 228.677 19.12C229.81 20.1333 230.377 21.4267 230.377 23C230.377 24.5867 229.81 25.8867 228.677 26.9C227.53 27.9267 226.004 28.5467 224.097 28.76ZM220.977 25.82V20.18C218.924 20.46 217.897 21.4 217.897 23C217.897 24.6 218.924 25.54 220.977 25.82ZM224.097 20.18V25.82C226.15 25.54 227.177 24.6 227.177 23C227.177 21.4 226.15 20.46 224.097 20.18Z" fill="#000000"/>
<path d="M67.697 3.77038C67.7804 3.60363 67.8198 3.41833 67.8114 3.23208C67.803 3.04583 67.7472 2.86481 67.6491 2.70622C67.5511 2.54763 67.4142 2.41672 67.2514 2.32593C67.0885 2.23515 66.9052 2.18749 66.7187 2.1875H3.28125C3.09481 2.18749 2.91147 2.23515 2.74863 2.32593C2.58579 2.41672 2.44886 2.54763 2.35084 2.70622C2.25283 2.86481 2.19698 3.04583 2.1886 3.23208C2.18023 3.41833 2.2196 3.60363 2.30299 3.77038L4.375 7.9144V62.0856L2.30299 66.2296C2.2196 66.3964 2.18023 66.5817 2.1886 66.7679C2.19698 66.9542 2.25283 67.1352 2.35084 67.2938C2.44886 67.4524 2.58579 67.5833 2.74863 67.6741C2.91147 67.7649 3.09481 67.8125 3.28125 67.8125H66.7187C66.9052 67.8125 67.0885 67.7649 67.2514 67.6741C67.4142 67.5833 67.5511 67.4524 67.6491 67.2938C67.7472 67.1352 67.803 66.9542 67.8114 66.7679C67.8198 66.5817 67.7804 66.3964 67.697 66.2296L65.625 62.0856V7.9144L67.697 3.77038ZM6.5625 8.75H22.9687V61.25H6.5625V8.75ZM25.1562 8.75H44.8437V61.25H25.1562V8.75ZM47.0312 8.75H63.4375V61.25H47.0312V8.75ZM64.949 4.375L63.8553 6.5625H6.14473L5.05098 4.375H64.949ZM5.05098 65.625L6.14473 63.4375H63.8553L64.949 65.625H5.05098Z" fill="#000000"/>
<path d="M19.6875 10.9375H9.84375C9.70012 10.9375 9.55789 10.9658 9.42519 11.0207C9.29248 11.0757 9.17191 11.1563 9.07034 11.2578C8.96878 11.3594 8.88821 11.48 8.83325 11.6127C8.77828 11.7454 8.75 11.8876 8.75 12.0312V32.8125C8.75 32.9561 8.77828 33.0984 8.83325 33.2311C8.88821 33.3638 8.96878 33.4843 9.07034 33.5859C9.17191 33.6875 9.29248 33.768 9.42519 33.823C9.55789 33.878 9.70012 33.9063 9.84375 33.9062H14.2188V31.7188H10.9375V13.125H18.5938V28.4375H20.7812V12.0312C20.7813 11.8876 20.753 11.7454 20.698 11.6127C20.643 11.48 20.5625 11.3594 20.4609 11.2578C20.3593 11.1563 20.2388 11.0757 20.1061 11.0207C19.9734 10.9658 19.8311 10.9375 19.6875 10.9375Z" fill="#000000"/>
<path d="M16.4062 32.8125V37.1875C16.4069 37.7675 16.6376 38.3235 17.0477 38.7336C17.4578 39.1437 18.0138 39.3743 18.5938 39.375H20.7812V37.1875H18.5938V32.8125H20.7812V30.625H18.5938C18.0138 30.6257 17.4578 30.8563 17.0477 31.2664C16.6376 31.6765 16.4069 32.2325 16.4062 32.8125Z" fill="#000000"/>
<path d="M18.5938 56.875H10.9375V38.2812H14.2188V36.0938H9.84375C9.70012 36.0937 9.55789 36.122 9.42519 36.177C9.29248 36.232 9.17191 36.3125 9.07034 36.4141C8.96878 36.5157 8.88821 36.6362 8.83325 36.7689C8.77828 36.9016 8.75 37.0439 8.75 37.1875V57.9688C8.75 58.1124 8.77828 58.2546 8.83325 58.3873C8.88821 58.52 8.96878 58.6406 9.07034 58.7422C9.17191 58.8437 9.29248 58.9243 9.42519 58.9792C9.55789 59.0342 9.70012 59.0625 9.84375 59.0625H19.6875C19.8311 59.0625 19.9734 59.0342 20.1061 58.9792C20.2388 58.9243 20.3593 58.8437 20.4609 58.7422C20.5625 58.6406 20.643 58.52 20.698 58.3873C20.753 58.2546 20.7813 58.1124 20.7812 57.9688V41.5625H18.5938V56.875Z" fill="#000000"/>
<path d="M60.1562 10.9375H50.3125C50.1689 10.9375 50.0266 10.9658 49.8939 11.0207C49.7612 11.0757 49.6407 11.1563 49.5391 11.2578C49.4375 11.3594 49.357 11.48 49.302 11.6127C49.247 11.7454 49.2187 11.8876 49.2188 12.0312V28.4375H51.4062V13.125H59.0625V31.7188H55.7812V33.9062H60.1562C60.2999 33.9063 60.4421 33.878 60.5748 33.823C60.7075 33.768 60.8281 33.6875 60.9297 33.5859C61.0312 33.4843 61.1118 33.3638 61.1667 33.2311C61.2217 33.0984 61.25 32.9561 61.25 32.8125V12.0312C61.25 11.8876 61.2217 11.7454 61.1667 11.6127C61.1118 11.48 61.0312 11.3594 60.9297 11.2578C60.8281 11.1563 60.7075 11.0757 60.5748 11.0207C60.4421 10.9658 60.2999 10.9375 60.1562 10.9375Z" fill="#000000"/>
<path d="M53.5938 37.1875V32.8125C53.5931 32.2325 53.3624 31.6765 52.9523 31.2664C52.5422 30.8563 51.9862 30.6257 51.4062 30.625H49.2188V32.8125H51.4062V37.1875H49.2188V39.375H51.4062C51.9862 39.3743 52.5422 39.1437 52.9523 38.7336C53.3624 38.3235 53.5931 37.7675 53.5938 37.1875Z" fill="#000000"/>
<path d="M60.1562 36.0938H55.7812V38.2812H59.0625V56.875H51.4062V41.5625H49.2188V57.9688C49.2187 58.1124 49.247 58.2546 49.302 58.3873C49.357 58.52 49.4375 58.6406 49.5391 58.7422C49.6407 58.8437 49.7612 58.9243 49.8939 58.9792C50.0266 59.0342 50.1689 59.0625 50.3125 59.0625H60.1562C60.2999 59.0625 60.4421 59.0342 60.5748 58.9792C60.7075 58.9243 60.8281 58.8437 60.9297 58.7422C61.0312 58.6406 61.1118 58.52 61.1667 58.3873C61.2217 58.2546 61.25 58.1124 61.25 57.9688V37.1875C61.25 37.0439 61.2217 36.9016 61.1667 36.7689C61.1118 36.6362 61.0312 36.5157 60.9297 36.4141C60.8281 36.3125 60.7075 36.232 60.5748 36.177C60.4421 36.122 60.2999 36.0937 60.1562 36.0938Z" fill="#000000"/>
<path d="M41.5625 10.9375H28.4375C28.2939 10.9375 28.1516 10.9658 28.0189 11.0207C27.8862 11.0757 27.7657 11.1563 27.6641 11.2578C27.5625 11.3594 27.482 11.48 27.427 11.6127C27.372 11.7454 27.3437 11.8876 27.3438 12.0312V57.9688C27.3437 58.1124 27.372 58.2546 27.427 58.3873C27.482 58.52 27.5625 58.6406 27.6641 58.7422C27.7657 58.8437 27.8862 58.9243 28.0189 58.9792C28.1516 59.0342 28.2939 59.0625 28.4375 59.0625H41.5625C41.7061 59.0625 41.8484 59.0342 41.9811 58.9792C42.1138 58.9243 42.2343 58.8437 42.3359 58.7422C42.4375 58.6406 42.518 58.52 42.573 58.3873C42.628 58.2546 42.6563 58.1124 42.6562 57.9688V12.0312C42.6563 11.8876 42.628 11.7454 42.573 11.6127C42.518 11.48 42.4375 11.3594 42.3359 11.2578C42.2343 11.1563 42.1138 11.0757 41.9811 11.0207C41.8484 10.9658 41.7061 10.9375 41.5625 10.9375ZM40.4688 56.875H29.5312V13.125H40.4688V56.875Z" fill="#000000"/>
</g>
<defs>
<clipPath id="clip0_67_142">
<rect width="240" height="70" fill="white"/>
</clipPath>
</defs>
</svg>
