<svg width="168" height="25" viewBox="0 0 168 25" fill="none" xmlns="http://www.w3.org/2000/svg">
<g clip-path="url(#clip0_227_871)">
<g filter="url(#filter0_i_227_871)">
<path d="M154.811 1.22876C155.306 0.199787 156.694 0.199789 157.188 1.22876L159.68 6.41664C159.874 6.82008 160.239 7.10065 160.661 7.17114L166.091 8.07758C167.168 8.25737 167.597 9.65537 166.826 10.4711L162.936 14.5838C162.633 14.9037 162.494 15.3577 162.561 15.8047L163.425 21.5527C163.596 22.6928 162.473 23.5568 161.502 23.032L156.606 20.3858C156.225 20.1801 155.774 20.1801 155.394 20.3858L150.498 23.032C149.526 23.5568 148.403 22.6928 148.575 21.5527L149.438 15.8047C149.506 15.3577 149.366 14.9037 149.064 14.5838L145.174 10.4711C144.403 9.65537 144.832 8.25737 145.909 8.07758L151.339 7.17114C151.761 7.10065 152.126 6.82008 152.319 6.41664L154.811 1.22876Z" fill="url(#paint0_linear_227_871)"/>
</g>
</g>
<g clip-path="url(#clip1_227_871)">
<g filter="url(#filter1_i_227_871)">
<path d="M118.811 1.22876C119.306 0.199787 120.694 0.199789 121.188 1.22876L123.68 6.41664C123.874 6.82008 124.239 7.10065 124.661 7.17114L130.091 8.07758C131.168 8.25737 131.597 9.65537 130.826 10.4711L126.936 14.5838C126.633 14.9037 126.494 15.3577 126.561 15.8047L127.425 21.5527C127.596 22.6928 126.473 23.5568 125.502 23.032L120.606 20.3858C120.225 20.1801 119.774 20.1801 119.394 20.3858L114.498 23.032C113.526 23.5568 112.403 22.6928 112.575 21.5527L113.438 15.8047C113.506 15.3577 113.366 14.9037 113.064 14.5838L109.174 10.4711C108.403 9.65537 108.832 8.25737 109.909 8.07758L115.339 7.17114C115.761 7.10065 116.126 6.82008 116.319 6.41664L118.811 1.22876Z" fill="#E2D194"/>
</g>
</g>
<g clip-path="url(#clip2_227_871)">
<g filter="url(#filter2_i_227_871)">
<path d="M82.8115 1.22876C83.3057 0.199787 84.694 0.199789 85.1883 1.22876L87.6804 6.41664C87.8743 6.82008 88.239 7.10065 88.6612 7.17114L94.0912 8.07758C95.1682 8.25737 95.5972 9.65537 94.8258 10.4711L90.936 14.5838C90.6335 14.9037 90.4942 15.3577 90.5614 15.8047L91.4251 21.5527C91.5964 22.6928 90.4732 23.5568 89.5022 23.032L84.6061 20.3858C84.2253 20.1801 83.7745 20.1801 83.3937 20.3858L78.4976 23.032C77.5265 23.5568 76.4033 22.6928 76.5747 21.5527L77.4385 15.8047C77.5056 15.3577 77.3663 14.9037 77.0638 14.5838L73.1741 10.4711C72.4026 9.65537 72.8316 8.25737 73.9086 8.07758L79.3385 7.17114C79.7608 7.10065 80.1255 6.82008 80.3193 6.41664L82.8115 1.22876Z" fill="#E2D194"/>
</g>
</g>
<g clip-path="url(#clip3_227_871)">
<g filter="url(#filter3_i_227_871)">
<path d="M46.8115 1.22876C47.3057 0.199787 48.694 0.199789 49.1883 1.22876L51.6804 6.41664C51.8743 6.82008 52.239 7.10065 52.6612 7.17114L58.0912 8.07758C59.1682 8.25737 59.5972 9.65537 58.8258 10.4711L54.936 14.5838C54.6335 14.9037 54.4942 15.3577 54.5614 15.8047L55.4251 21.5527C55.5964 22.6928 54.4732 23.5568 53.5022 23.032L48.6061 20.3858C48.2253 20.1801 47.7745 20.1801 47.3937 20.3858L42.4976 23.032C41.5265 23.5568 40.4033 22.6928 40.5747 21.5527L41.4385 15.8047C41.5056 15.3577 41.3663 14.9037 41.0638 14.5838L37.1741 10.4711C36.4026 9.65537 36.8316 8.25737 37.9086 8.07758L43.3385 7.17114C43.7608 7.10065 44.1255 6.82008 44.3193 6.41664L46.8115 1.22876Z" fill="#E2D194"/>
</g>
</g>
<g clip-path="url(#clip4_227_871)">
<g filter="url(#filter4_i_227_871)">
<path d="M10.8115 1.22876C11.3057 0.199787 12.694 0.199789 13.1883 1.22876L15.6804 6.41664C15.8743 6.82008 16.239 7.10065 16.6612 7.17114L22.0912 8.07758C23.1682 8.25737 23.5972 9.65537 22.8258 10.4711L18.936 14.5838C18.6335 14.9037 18.4942 15.3577 18.5614 15.8047L19.4251 21.5527C19.5964 22.6928 18.4732 23.5568 17.5022 23.032L12.6061 20.3858C12.2253 20.1801 11.7745 20.1801 11.3937 20.3858L6.4976 23.032C5.5265 23.5568 4.40335 22.6928 4.57467 21.5527L5.43846 15.8047C5.50563 15.3577 5.36631 14.9037 5.06383 14.5838L1.17407 10.4711C0.402574 9.65537 0.83158 8.25737 1.90856 8.07758L7.33854 7.17114C7.76079 7.10065 8.12554 6.82008 8.31934 6.41664L10.8115 1.22876Z" fill="#E2D194"/>
</g>
</g>
<defs>
<filter id="filter0_i_227_871" x="144.781" y="-0.542969" width="22.4368" height="23.7322" filterUnits="userSpaceOnUse" color-interpolation-filters="sRGB">
<feFlood flood-opacity="0" result="BackgroundImageFix"/>
<feBlend mode="normal" in="SourceGraphic" in2="BackgroundImageFix" result="shape"/>
<feColorMatrix in="SourceAlpha" type="matrix" values="0 0 0 0 0 0 0 0 0 0 0 0 0 0 0 0 0 0 127 0" result="hardAlpha"/>
<feOffset dy="-1"/>
<feGaussianBlur stdDeviation="1"/>
<feComposite in2="hardAlpha" operator="arithmetic" k2="-1" k3="1"/>
<feColorMatrix type="matrix" values="0 0 0 0 0 0 0 0 0 0 0 0 0 0 0 0 0 0 0.21 0"/>
<feBlend mode="normal" in2="shape" result="effect1_innerShadow_227_871"/>
</filter>
<filter id="filter1_i_227_871" x="108.781" y="-0.542969" width="22.4368" height="23.7322" filterUnits="userSpaceOnUse" color-interpolation-filters="sRGB">
<feFlood flood-opacity="0" result="BackgroundImageFix"/>
<feBlend mode="normal" in="SourceGraphic" in2="BackgroundImageFix" result="shape"/>
<feColorMatrix in="SourceAlpha" type="matrix" values="0 0 0 0 0 0 0 0 0 0 0 0 0 0 0 0 0 0 127 0" result="hardAlpha"/>
<feOffset dy="-1"/>
<feGaussianBlur stdDeviation="1"/>
<feComposite in2="hardAlpha" operator="arithmetic" k2="-1" k3="1"/>
<feColorMatrix type="matrix" values="0 0 0 0 0 0 0 0 0 0 0 0 0 0 0 0 0 0 0.21 0"/>
<feBlend mode="normal" in2="shape" result="effect1_innerShadow_227_871"/>
</filter>
<filter id="filter2_i_227_871" x="72.7815" y="-0.542969" width="22.4368" height="23.7322" filterUnits="userSpaceOnUse" color-interpolation-filters="sRGB">
<feFlood flood-opacity="0" result="BackgroundImageFix"/>
<feBlend mode="normal" in="SourceGraphic" in2="BackgroundImageFix" result="shape"/>
<feColorMatrix in="SourceAlpha" type="matrix" values="0 0 0 0 0 0 0 0 0 0 0 0 0 0 0 0 0 0 127 0" result="hardAlpha"/>
<feOffset dy="-1"/>
<feGaussianBlur stdDeviation="1"/>
<feComposite in2="hardAlpha" operator="arithmetic" k2="-1" k3="1"/>
<feColorMatrix type="matrix" values="0 0 0 0 0 0 0 0 0 0 0 0 0 0 0 0 0 0 0.21 0"/>
<feBlend mode="normal" in2="shape" result="effect1_innerShadow_227_871"/>
</filter>
<filter id="filter3_i_227_871" x="36.7815" y="-0.542969" width="22.4368" height="23.7322" filterUnits="userSpaceOnUse" color-interpolation-filters="sRGB">
<feFlood flood-opacity="0" result="BackgroundImageFix"/>
<feBlend mode="normal" in="SourceGraphic" in2="BackgroundImageFix" result="shape"/>
<feColorMatrix in="SourceAlpha" type="matrix" values="0 0 0 0 0 0 0 0 0 0 0 0 0 0 0 0 0 0 127 0" result="hardAlpha"/>
<feOffset dy="-1"/>
<feGaussianBlur stdDeviation="1"/>
<feComposite in2="hardAlpha" operator="arithmetic" k2="-1" k3="1"/>
<feColorMatrix type="matrix" values="0 0 0 0 0 0 0 0 0 0 0 0 0 0 0 0 0 0 0.21 0"/>
<feBlend mode="normal" in2="shape" result="effect1_innerShadow_227_871"/>
</filter>
<filter id="filter4_i_227_871" x="0.781494" y="-0.542969" width="22.4368" height="23.7322" filterUnits="userSpaceOnUse" color-interpolation-filters="sRGB">
<feFlood flood-opacity="0" result="BackgroundImageFix"/>
<feBlend mode="normal" in="SourceGraphic" in2="BackgroundImageFix" result="shape"/>
<feColorMatrix in="SourceAlpha" type="matrix" values="0 0 0 0 0 0 0 0 0 0 0 0 0 0 0 0 0 0 127 0" result="hardAlpha"/>
<feOffset dy="-1"/>
<feGaussianBlur stdDeviation="1"/>
<feComposite in2="hardAlpha" operator="arithmetic" k2="-1" k3="1"/>
<feColorMatrix type="matrix" values="0 0 0 0 0 0 0 0 0 0 0 0 0 0 0 0 0 0 0.21 0"/>
<feBlend mode="normal" in2="shape" result="effect1_innerShadow_227_871"/>
</filter>
<linearGradient id="paint0_linear_227_871" x1="144.781" y1="11.8232" x2="167.218" y2="11.8232" gradientUnits="userSpaceOnUse">
<stop stop-color="#E2D194"/>
<stop offset="0.5" stop-color="#E2D194"/>
<stop offset="0.5001" stop-color="#E8E8E8"/>
<stop offset="1" stop-color="#E8E8E8"/>
</linearGradient>
<clipPath id="clip0_227_871">
<rect width="24" height="24" fill="white" transform="translate(144 0.166504)"/>
</clipPath>
<clipPath id="clip1_227_871">
<rect width="24" height="24" fill="white" transform="translate(108 0.166504)"/>
</clipPath>
<clipPath id="clip2_227_871">
<rect width="24" height="24" fill="white" transform="translate(72 0.166504)"/>
</clipPath>
<clipPath id="clip3_227_871">
<rect width="24" height="24" fill="white" transform="translate(36 0.166504)"/>
</clipPath>
<clipPath id="clip4_227_871">
<rect width="24" height="24" fill="white" transform="translate(0 0.166504)"/>
</clipPath>
</defs>
</svg>
