<svg width="40" height="40" viewBox="0 0 40 40" fill="none" xmlns="http://www.w3.org/2000/svg">
<g clip-path="url(#clip0_34_59)">
<path d="M39.8 31.8077L38.4232 28.572C37.2226 25.7034 35.6373 23.2224 33.7006 21.1783C36.2454 19.1416 38.7991 15.5934 38.7991 9.55818V7.21561C38.7991 5.83992 37.6799 4.7207 36.3042 4.7207H31.6191C30.2434 4.7207 29.1242 5.83992 29.1242 7.21561V9.55818C29.1242 11.2996 28.8012 12.4312 28.0767 13.2273C27.5702 13.7841 26.8192 14.2251 25.8356 14.545V5.90179C25.8356 5.24953 25.3067 4.7207 24.6545 4.7207H15.8819C14.1255 4.7207 12.6967 6.14952 12.6967 7.90584C12.6967 9.38724 13.7032 10.6614 15.1444 11.0045L15.5282 11.0958C15.9005 11.1844 16.1605 11.5136 16.1605 11.8964V24.0313C15.1105 23.312 14.1298 22.3586 13.2683 21.2119C10.951 18.1276 9.67487 13.9889 9.67487 9.55802V7.21561C9.67487 5.83992 8.55565 4.7207 7.17996 4.7207H2.49483C1.11913 4.7207 0 5.83992 0 7.21561V9.55818C0 16.2024 2.04022 22.4983 5.74512 27.2857C9.73424 32.4405 15.1512 35.2794 20.9981 35.2794H23.3406C24.7163 35.2794 25.8356 34.1602 25.8356 32.7845V27.0376C27.3494 28.3411 28.5784 30.1085 29.4989 32.3089L30.1007 33.7474C30.49 34.678 31.3934 35.2794 32.4022 35.2794H37.5041C38.344 35.2794 39.122 34.8612 39.5854 34.1605C40.0487 33.46 40.1289 32.5804 39.8 31.8077ZM37.6147 32.8576C37.5754 32.9172 37.5236 32.9172 37.5041 32.9172H32.4022C32.3486 32.9172 32.3006 32.8852 32.2799 32.8358L31.6781 31.3973C30.3683 28.2661 28.4859 25.8664 26.0835 24.2647C25.8111 24.083 25.5312 23.9129 25.2277 23.7443C25.0492 23.6452 24.8517 23.5957 24.6544 23.5957C24.4471 23.5957 24.24 23.6503 24.0553 23.7589C23.6947 23.9711 23.4733 24.3584 23.4733 24.7768V32.7844C23.4733 32.8576 23.4138 32.9171 23.3406 32.9171H20.9981C15.8984 32.9171 11.145 30.4038 7.61331 25.84C4.22716 21.4642 2.36233 15.6818 2.36233 9.5581V7.21561C2.36233 7.14249 2.42186 7.08296 2.49499 7.08296H7.18004C7.25316 7.08296 7.31269 7.14249 7.31269 7.21561V9.55818C7.31269 14.4974 8.75706 19.1401 11.3795 22.6309C12.9267 24.6901 14.8284 26.24 16.8789 27.1128C17.2436 27.2682 17.662 27.2299 17.9929 27.0114C18.3236 26.7926 18.5226 26.4225 18.5226 26.026V11.8964C18.5226 10.415 17.5161 9.14068 16.075 8.79771L15.6912 8.70646C15.3189 8.61779 15.0588 8.28849 15.0588 7.90584C15.0588 7.45209 15.428 7.08288 15.8818 7.08288H23.4732V16.0512C23.4732 16.4015 23.6288 16.7338 23.8978 16.9581C24.1667 17.1825 24.5215 17.2763 24.866 17.2132C27.0752 16.8109 28.7433 16.0046 29.8239 14.817C30.9736 13.5534 31.4864 11.9316 31.4864 9.5581V7.21553C31.4864 7.14241 31.5459 7.08288 31.619 7.08288H36.3042C36.3773 7.08288 36.4368 7.14241 36.4368 7.21553V9.5581C36.4368 15.4735 33.6098 18.5234 31.2381 20.0405C30.9295 20.2378 30.73 20.5672 30.6979 20.9321C30.6659 21.2971 30.8051 21.6562 31.0745 21.9043C33.2314 23.8902 34.971 26.4413 36.2451 29.4866C36.246 29.4888 36.247 29.491 36.2479 29.4932L37.6263 32.7326C37.6338 32.7505 37.6541 32.7982 37.6147 32.8576Z" fill="white"/>
</g>
<defs>
<clipPath id="clip0_34_59">
<rect width="40" height="40" fill="white"/>
</clipPath>
</defs>
</svg>
